<svg xmlns="http://www.w3.org/2000/svg" viewBox="0 0 192 192">
  <rect width="192" height="192" rx="40" fill="#FFF8F0"/>
  <defs>
    <radialGradient id="bg" cx="50%" cy="30%" r="70%">
      <stop offset="0%" stop-color="#E8851A" stop-opacity="0.15"/>
      <stop offset="100%" stop-color="#FFF8F0"/>
    </radialGradient>
  </defs>
  <rect width="192" height="192" rx="40" fill="url(#bg)"/>
  <polygon points="96,30 90,55 102,55" fill="#C8900A" opacity="0.7"/>
  <polygon points="96,162 90,137 102,137" fill="#C8900A" opacity="0.7"/>
  <polygon points="30,96 55,90 55,102" fill="#C8900A" opacity="0.7"/>
  <polygon points="162,96 137,90 137,102" fill="#C8900A" opacity="0.7"/>
  <polygon points="43,43 61,65 65,61" fill="#E8851A" opacity="0.6"/>
  <polygon points="149,149 131,127 127,131" fill="#E8851A" opacity="0.6"/>
  <polygon points="149,43 127,65 131,61" fill="#E8851A" opacity="0.6"/>
  <polygon points="43,149 65,127 61,131" fill="#E8851A" opacity="0.6"/>
  <circle cx="96" cy="96" r="30" fill="none" stroke="#C8900A" stroke-width="1.5" stroke-opacity="0.3"/>
  <line x1="96" y1="66" x2="96" y2="126" stroke="#C8900A" stroke-width="1" stroke-opacity="0.3"/>
  <line x1="66" y1="96" x2="126" y2="96" stroke="#C8900A" stroke-width="1" stroke-opacity="0.3"/>
  <circle cx="96" cy="66" r="4" fill="#C8900A"/>
  <circle cx="96" cy="126" r="4" fill="#C8900A" opacity="0.6"/>
  <circle cx="66" cy="96" r="4" fill="#C8900A" opacity="0.7"/>
  <circle cx="126" cy="96" r="4" fill="#C8900A" opacity="0.6"/>
  <circle cx="96" cy="96" r="13" fill="rgba(181,35,10,0.1)"/>
  <circle cx="96" cy="96" r="8" fill="#B5230A"/>
  <circle cx="96" cy="96" r="4" fill="#FFF8F0"/>
  <rect x="0" y="180" width="192" height="12" rx="0" fill="#C8900A" opacity="0.2"/>
</svg>
